<?xml version="1.0" encoding="UTF-8" standalone="no"?>
<!-- Generator: Adobe Illustrator 16.0.0, SVG Export Plug-In . SVG Version: 6.00 Build 0)  -->

<svg
   xmlns:dc="http://purl.org/dc/elements/1.1/"
   xmlns:cc="http://creativecommons.org/ns#"
   xmlns:rdf="http://www.w3.org/1999/02/22-rdf-syntax-ns#"
   xmlns:svg="http://www.w3.org/2000/svg"
   xmlns="http://www.w3.org/2000/svg"
   xmlns:sodipodi="http://sodipodi.sourceforge.net/DTD/sodipodi-0.dtd"
   xmlns:inkscape="http://www.inkscape.org/namespaces/inkscape"
   version="1.1"
   id="Layer_1"
   x="0px"
   y="0px"
   width="320px"
   height="90px"
   viewBox="0 0 320 90"
   enable-background="new 0 0 320 90"
   xml:space="preserve"
   inkscape:version="0.91 r13725"
   sodipodi:docname="logo.svg"><metadata
     id="metadata25"><rdf:RDF><cc:Work
         rdf:about=""><dc:format>image/svg+xml</dc:format><dc:type
           rdf:resource="http://purl.org/dc/dcmitype/StillImage" /><dc:title></dc:title></cc:Work></rdf:RDF></metadata><defs
     id="defs23"><clipPath
       id="clipPath54"
       clipPathUnits="userSpaceOnUse"><path
         inkscape:connector-curvature="0"
         id="path56"
         d="m 0,595.28 841.89,0 L 841.89,0 0,0 0,595.28 Z" /></clipPath></defs><sodipodi:namedview
     pagecolor="#ffffff"
     bordercolor="#666666"
     borderopacity="1"
     objecttolerance="10"
     gridtolerance="10"
     guidetolerance="10"
     inkscape:pageopacity="0"
     inkscape:pageshadow="2"
     inkscape:window-width="1280"
     inkscape:window-height="697"
     id="namedview21"
     showgrid="false"
     inkscape:showpageshadow="false"
     showguides="true"
     inkscape:guide-bbox="true"
     inkscape:zoom="1.85"
     inkscape:cx="175.94595"
     inkscape:cy="1.7567567"
     inkscape:window-x="-8"
     inkscape:window-y="-8"
     inkscape:window-maximized="1"
     inkscape:current-layer="Layer_1"><sodipodi:guide
       position="171.89189,120"
       orientation="1,0"
       id="guide4153" /><sodipodi:guide
       position="118.37838,78.918919"
       orientation="0,1"
       id="guide4155" /><sodipodi:guide
       position="131.89189,14.594595"
       orientation="0,1"
       id="guide4157" /></sodipodi:namedview><g
     transform="matrix(0.59384187,0,0,0.59384187,-3.4405924,-535.39858)"
     id="layer1"><g
       id="g50"
       transform="matrix(2.6736344,0,0,-2.6736344,-503.26968,2380.7546)"><g
         clip-path="url(#clipPath54)"
         id="g52"><g
           transform="translate(201.2217,537.7896)"
           id="g58"><path
             inkscape:connector-curvature="0"
             id="path60"
             style="fill:#44afcf;fill-opacity:1;fill-rule:nonzero;stroke:none"
             d="m 0,0 c 0,-1.693 -1.373,-3.066 -3.066,-3.066 -1.694,0 -3.067,1.373 -3.067,3.066 0,1.694 1.373,3.066 3.067,3.066 C -1.373,3.066 0,1.694 0,0" /></g><g
           transform="translate(196.9111,531.8623)"
           id="g62"><path
             inkscape:connector-curvature="0"
             id="path64"
             style="fill:#44afcf;fill-opacity:1;fill-rule:nonzero;stroke:none"
             d="m 0,0 c 0,-1.512 -1.227,-2.737 -2.738,-2.737 -1.51,0 -2.735,1.225 -2.735,2.737 0,1.51 1.225,2.736 2.735,2.736 C -1.227,2.736 0,1.51 0,0" /></g><g
           transform="translate(195.3643,525.0659)"
           id="g66"><path
             inkscape:connector-curvature="0"
             id="path68"
             style="fill:#44afcf;fill-opacity:1;fill-rule:nonzero;stroke:none"
             d="m 0,0 c 0,-1.37 -1.111,-2.481 -2.48,-2.481 -1.372,0 -2.483,1.111 -2.483,2.481 0,1.37 1.111,2.481 2.483,2.481 C -1.111,2.481 0,1.37 0,0" /></g><g
           transform="translate(196.583,518.4653)"
           id="g70"><path
             inkscape:connector-curvature="0"
             id="path72"
             style="fill:#44afcf;fill-opacity:1;fill-rule:nonzero;stroke:none"
             d="m 0,0 c 0,-1.274 -1.033,-2.308 -2.309,-2.308 -1.275,0 -2.31,1.034 -2.31,2.308 0,1.276 1.035,2.311 2.31,2.311 C -1.033,2.311 0,1.276 0,0" /></g><g
           transform="translate(200.0791,512.354)"
           id="g74"><path
             inkscape:connector-curvature="0"
             id="path76"
             style="fill:#44afcf;fill-opacity:1;fill-rule:nonzero;stroke:none"
             d="m 0,0 c 0,-0.982 -0.795,-1.777 -1.777,-1.777 -0.981,0 -1.776,0.795 -1.776,1.777 0,0.981 0.795,1.776 1.776,1.776 C -0.795,1.776 0,0.981 0,0" /></g><g
           transform="translate(206.167,508.5669)"
           id="g78"><path
             inkscape:connector-curvature="0"
             id="path80"
             style="fill:#44afcf;fill-opacity:1;fill-rule:nonzero;stroke:none"
             d="m 0,0 c 0,-0.953 -0.773,-1.726 -1.727,-1.726 -0.951,0 -1.724,0.773 -1.724,1.726 0,0.952 0.773,1.724 1.724,1.724 C -0.773,1.724 0,0.952 0,0" /></g><g
           transform="translate(212.7061,507.1514)"
           id="g82"><path
             inkscape:connector-curvature="0"
             id="path84"
             style="fill:#44afcf;fill-opacity:1;fill-rule:nonzero;stroke:none"
             d="m 0,0 c 0,-0.782 -0.633,-1.415 -1.416,-1.415 -0.781,0 -1.414,0.633 -1.414,1.415 0,0.781 0.633,1.416 1.414,1.416 C -0.633,1.416 0,0.781 0,0" /></g><g
           transform="translate(213.0264,537.2715)"
           id="g86"><path
             inkscape:connector-curvature="0"
             id="path88"
             style="fill:#44afcf;fill-opacity:1;fill-rule:nonzero;stroke:none"
             d="m 0,0 c 0,-1.104 -0.895,-2 -1.998,-2 -1.106,0 -2,0.896 -2,2 0,1.105 0.894,2 2,2 C -0.895,2 0,1.105 0,0" /></g><g
           transform="translate(219.0635,508.5269)"
           id="g90"><path
             inkscape:connector-curvature="0"
             id="path92"
             style="fill:#44afcf;fill-opacity:1;fill-rule:nonzero;stroke:none"
             d="m 0,0 c 0,-0.557 -0.451,-1.009 -1.01,-1.009 -0.556,0 -1.008,0.452 -1.008,1.009 0,0.558 0.452,1.009 1.008,1.009 C -0.451,1.009 0,0.558 0,0" /></g><g
           transform="translate(208.1338,536.4575)"
           id="g94"><path
             inkscape:connector-curvature="0"
             id="path96"
             style="fill:#44afcf;fill-opacity:1;fill-rule:nonzero;stroke:none"
             d="m 0,0 c 0,-1.027 -0.832,-1.859 -1.859,-1.859 -1.028,0 -1.86,0.832 -1.86,1.859 0,1.027 0.832,1.859 1.86,1.859 C -0.832,1.859 0,1.027 0,0" /></g><g
           transform="translate(204.0205,533.8525)"
           id="g98"><path
             inkscape:connector-curvature="0"
             id="path100"
             style="fill:#44afcf;fill-opacity:1;fill-rule:nonzero;stroke:none"
             d="m 0,0 c 0,-0.916 -0.742,-1.657 -1.658,-1.657 -0.916,0 -1.656,0.741 -1.656,1.657 0,0.916 0.74,1.657 1.656,1.657 C -0.742,1.657 0,0.916 0,0" /></g><g
           transform="translate(201.4053,530.1084)"
           id="g102"><path
             inkscape:connector-curvature="0"
             id="path104"
             style="fill:#44afcf;fill-opacity:1;fill-rule:nonzero;stroke:none"
             d="m 0,0 c 0,-0.862 -0.697,-1.561 -1.561,-1.561 -0.861,0 -1.56,0.699 -1.56,1.561 0,0.861 0.699,1.56 1.56,1.56 C -0.697,1.56 0,0.861 0,0" /></g><g
           transform="translate(200.0459,525.1172)"
           id="g106"><path
             inkscape:connector-curvature="0"
             id="path108"
             style="fill:#44afcf;fill-opacity:1;fill-rule:nonzero;stroke:none"
             d="m 0,0 c 0,-0.661 -0.535,-1.197 -1.197,-1.197 -0.66,0 -1.198,0.536 -1.198,1.197 0,0.661 0.538,1.197 1.198,1.197 C -0.535,1.197 0,0.661 0,0" /></g><g
           transform="translate(201.0889,520.2788)"
           id="g110"><path
             inkscape:connector-curvature="0"
             id="path112"
             style="fill:#44afcf;fill-opacity:1;fill-rule:nonzero;stroke:none"
             d="m 0,0 c 0,-0.625 -0.508,-1.132 -1.133,-1.132 -0.625,0 -1.131,0.507 -1.131,1.132 0,0.625 0.506,1.132 1.131,1.132 C -0.508,1.132 0,0.625 0,0" /></g><g
           transform="translate(203.5889,516.3872)"
           id="g114"><path
             inkscape:connector-curvature="0"
             id="path116"
             style="fill:#44afcf;fill-opacity:1;fill-rule:nonzero;stroke:none"
             d="m 0,0 c 0,-0.56 -0.451,-1.013 -1.012,-1.013 -0.56,0 -1.013,0.453 -1.013,1.013 0,0.561 0.453,1.014 1.013,1.014 C -0.451,1.014 0,0.561 0,0" /></g><g
           transform="translate(207.208,513.7402)"
           id="g118"><path
             inkscape:connector-curvature="0"
             id="path120"
             style="fill:#44afcf;fill-opacity:1;fill-rule:nonzero;stroke:none"
             d="m 0,0 c 0,-0.396 -0.322,-0.717 -0.717,-0.717 -0.396,0 -0.717,0.321 -0.717,0.717 0,0.396 0.321,0.717 0.717,0.717 C -0.322,0.717 0,0.396 0,0" /></g><g
           transform="translate(204.7764,527.897)"
           id="g122"><path
             inkscape:connector-curvature="0"
             id="path124"
             style="fill:#44afcf;fill-opacity:1;fill-rule:nonzero;stroke:none"
             d="m 0,0 c 0,-0.448 -0.361,-0.811 -0.811,-0.811 -0.447,0 -0.81,0.363 -0.81,0.811 0,0.447 0.363,0.811 0.81,0.811 C -0.361,0.811 0,0.447 0,0" /></g><g
           transform="translate(206.5361,530.6362)"
           id="g126"><path
             inkscape:connector-curvature="0"
             id="path128"
             style="fill:#44afcf;fill-opacity:1;fill-rule:nonzero;stroke:none"
             d="m 0,0 c 0,-0.448 -0.361,-0.812 -0.811,-0.812 -0.447,0 -0.81,0.364 -0.81,0.812 0,0.448 0.363,0.812 0.81,0.812 C -0.361,0.812 0,0.448 0,0" /></g><g
           transform="translate(209.3779,532.4199)"
           id="g130"><path
             inkscape:connector-curvature="0"
             id="path132"
             style="fill:#44afcf;fill-opacity:1;fill-rule:nonzero;stroke:none"
             d="m 0,0 c 0,-0.537 -0.436,-0.972 -0.973,-0.972 -0.537,0 -0.972,0.435 -0.972,0.972 0,0.537 0.435,0.972 0.972,0.972 C -0.436,0.972 0,0.537 0,0" /></g><g
           transform="translate(215.4756,532.3379)"
           id="g134"><path
             inkscape:connector-curvature="0"
             id="path136"
             style="fill:#44afcf;fill-opacity:1;fill-rule:nonzero;stroke:none"
             d="m 0,0 c 0,-0.677 -0.547,-1.225 -1.223,-1.225 -0.677,0 -1.226,0.548 -1.226,1.225 0,0.676 0.549,1.225 1.226,1.225 C -0.547,1.225 0,0.676 0,0" /></g><g
           transform="translate(218.2686,530.542)"
           id="g138"><path
             inkscape:connector-curvature="0"
             id="path140"
             style="fill:#44afcf;fill-opacity:1;fill-rule:nonzero;stroke:none"
             d="m 0,0 c 0,-0.771 -0.625,-1.396 -1.396,-1.396 -0.772,0 -1.397,0.625 -1.397,1.396 0,0.771 0.625,1.396 1.397,1.396 C -0.625,1.396 0,0.771 0,0" /></g><g
           transform="translate(204.0225,524.998)"
           id="g142"><path
             inkscape:connector-curvature="0"
             id="path144"
             style="fill:#44afcf;fill-opacity:1;fill-rule:nonzero;stroke:none"
             d="m 0,0 c 0,-0.367 -0.297,-0.663 -0.664,-0.663 -0.367,0 -0.664,0.296 -0.664,0.663 0,0.367 0.297,0.664 0.664,0.664 C -0.297,0.664 0,0.367 0,0" /></g><g
           transform="translate(204.4346,521.731)"
           id="g146"><path
             inkscape:connector-curvature="0"
             id="path148"
             style="fill:#44afcf;fill-opacity:1;fill-rule:nonzero;stroke:none"
             d="m 0,0 c 0,-0.261 -0.213,-0.473 -0.473,-0.473 -0.261,0 -0.472,0.212 -0.472,0.473 0,0.26 0.211,0.472 0.472,0.472 C -0.213,0.472 0,0.26 0,0" /></g><g
           transform="translate(212.458,533.0381)"
           id="g150"><path
             inkscape:connector-curvature="0"
             id="path152"
             style="fill:#44afcf;fill-opacity:1;fill-rule:nonzero;stroke:none"
             d="m 0,0 c 0,-0.608 -0.492,-1.101 -1.102,-1.101 -0.607,0 -1.099,0.493 -1.099,1.101 0,0.609 0.492,1.101 1.099,1.101 C -0.492,1.101 0,0.609 0,0" /></g><g
           transform="translate(221.3232,512.0107)"
           id="g154"><path
             inkscape:connector-curvature="0"
             id="path156"
             style="fill:#282a65;fill-opacity:1;fill-rule:nonzero;stroke:none"
             d="M 0,0 C 0,1.693 1.371,3.066 3.064,3.066 4.76,3.066 6.131,1.693 6.131,0 6.131,-1.693 4.76,-3.067 3.064,-3.067 1.371,-3.067 0,-1.693 0,0" /></g><g
           transform="translate(225.6318,517.9385)"
           id="g158"><path
             inkscape:connector-curvature="0"
             id="path160"
             style="fill:#282a65;fill-opacity:1;fill-rule:nonzero;stroke:none"
             d="M 0,0 C 0,1.512 1.227,2.736 2.738,2.736 4.248,2.736 5.475,1.512 5.475,0 5.475,-1.511 4.248,-2.736 2.738,-2.736 1.227,-2.736 0,-1.511 0,0" /></g><g
           transform="translate(227.1787,524.7354)"
           id="g162"><path
             inkscape:connector-curvature="0"
             id="path164"
             style="fill:#282a65;fill-opacity:1;fill-rule:nonzero;stroke:none"
             d="M 0,0 C 0,1.371 1.111,2.48 2.48,2.48 3.852,2.48 4.961,1.371 4.961,0 4.961,-1.37 3.852,-2.482 2.48,-2.482 1.111,-2.482 0,-1.37 0,0" /></g><g
           transform="translate(225.96,531.334)"
           id="g166"><path
             inkscape:connector-curvature="0"
             id="path168"
             style="fill:#282a65;fill-opacity:1;fill-rule:nonzero;stroke:none"
             d="M 0,0 C 0,1.276 1.033,2.309 2.311,2.309 3.584,2.309 4.617,1.276 4.617,0 4.617,-1.275 3.584,-2.308 2.311,-2.308 1.033,-2.308 0,-1.275 0,0" /></g><g
           transform="translate(222.4619,537.4473)"
           id="g170"><path
             inkscape:connector-curvature="0"
             id="path172"
             style="fill:#282a65;fill-opacity:1;fill-rule:nonzero;stroke:none"
             d="M 0,0 C 0,0.981 0.797,1.776 1.779,1.776 2.76,1.776 3.555,0.981 3.555,0 3.555,-0.981 2.76,-1.777 1.779,-1.777 0.797,-1.777 0,-0.981 0,0" /></g><g
           transform="translate(216.376,541.2344)"
           id="g174"><path
             inkscape:connector-curvature="0"
             id="path176"
             style="fill:#282a65;fill-opacity:1;fill-rule:nonzero;stroke:none"
             d="M 0,0 C 0,0.953 0.773,1.725 1.727,1.725 2.678,1.725 3.451,0.953 3.451,0 3.451,-0.953 2.678,-1.726 1.727,-1.726 0.773,-1.726 0,-0.953 0,0" /></g><g
           transform="translate(209.8369,542.6499)"
           id="g178"><path
             inkscape:connector-curvature="0"
             id="path180"
             style="fill:#282a65;fill-opacity:1;fill-rule:nonzero;stroke:none"
             d="M 0,0 C 0,0.782 0.633,1.415 1.414,1.415 2.197,1.415 2.83,0.782 2.83,0 2.83,-0.782 2.197,-1.416 1.414,-1.416 0.633,-1.416 0,-0.782 0,0" /></g><g
           transform="translate(209.5146,512.5288)"
           id="g182"><path
             inkscape:connector-curvature="0"
             id="path184"
             style="fill:#282a65;fill-opacity:1;fill-rule:nonzero;stroke:none"
             d="M 0,0 C 0,1.104 0.895,2 2,2 3.105,2 4,1.104 4,0 4,-1.104 3.105,-2 2,-2 0.895,-2 0,-1.104 0,0" /></g><g
           transform="translate(203.4795,541.2734)"
           id="g186"><path
             inkscape:connector-curvature="0"
             id="path188"
             style="fill:#282a65;fill-opacity:1;fill-rule:nonzero;stroke:none"
             d="M 0,0 C 0,0.557 0.451,1.009 1.01,1.009 1.566,1.009 2.018,0.557 2.018,0 2.018,-0.557 1.566,-1.009 1.01,-1.009 0.451,-1.009 0,-0.557 0,0" /></g><g
           transform="translate(214.4092,513.3423)"
           id="g190"><path
             inkscape:connector-curvature="0"
             id="path192"
             style="fill:#282a65;fill-opacity:1;fill-rule:nonzero;stroke:none"
             d="m 0,0 c 0,1.028 0.834,1.86 1.859,1.86 1.028,0 1.86,-0.832 1.86,-1.86 0,-1.027 -0.832,-1.858 -1.86,-1.858 C 0.834,-1.858 0,-1.027 0,0" /></g><g
           transform="translate(218.5225,515.9487)"
           id="g194"><path
             inkscape:connector-curvature="0"
             id="path196"
             style="fill:#282a65;fill-opacity:1;fill-rule:nonzero;stroke:none"
             d="M 0,0 C 0,0.915 0.742,1.657 1.658,1.657 2.572,1.657 3.314,0.915 3.314,0 3.314,-0.917 2.572,-1.658 1.658,-1.658 0.742,-1.658 0,-0.917 0,0" /></g><g
           transform="translate(221.1357,519.6919)"
           id="g198"><path
             inkscape:connector-curvature="0"
             id="path200"
             style="fill:#282a65;fill-opacity:1;fill-rule:nonzero;stroke:none"
             d="m 0,0 c 0,0.864 0.699,1.562 1.561,1.562 0.863,0 1.56,-0.698 1.56,-1.562 0,-0.861 -0.697,-1.56 -1.56,-1.56 C 0.699,-1.56 0,-0.861 0,0" /></g><g
           transform="translate(222.4951,524.6831)"
           id="g202"><path
             inkscape:connector-curvature="0"
             id="path204"
             style="fill:#282a65;fill-opacity:1;fill-rule:nonzero;stroke:none"
             d="M 0,0 C 0,0.662 0.537,1.196 1.199,1.196 1.859,1.196 2.395,0.662 2.395,0 2.395,-0.661 1.859,-1.196 1.199,-1.196 0.537,-1.196 0,-0.661 0,0" /></g><g
           transform="translate(221.4541,529.522)"
           id="g206"><path
             inkscape:connector-curvature="0"
             id="path208"
             style="fill:#282a65;fill-opacity:1;fill-rule:nonzero;stroke:none"
             d="M 0,0 C 0,0.625 0.506,1.131 1.133,1.131 1.758,1.131 2.264,0.625 2.264,0 2.264,-0.626 1.758,-1.132 1.133,-1.132 0.506,-1.132 0,-0.626 0,0" /></g><g
           transform="translate(218.9521,533.4131)"
           id="g210"><path
             inkscape:connector-curvature="0"
             id="path212"
             style="fill:#282a65;fill-opacity:1;fill-rule:nonzero;stroke:none"
             d="M 0,0 C 0,0.559 0.455,1.013 1.014,1.013 1.574,1.013 2.027,0.559 2.027,0 2.027,-0.56 1.574,-1.013 1.014,-1.013 0.455,-1.013 0,-0.56 0,0" /></g><g
           transform="translate(215.335,536.0605)"
           id="g214"><path
             inkscape:connector-curvature="0"
             id="path216"
             style="fill:#282a65;fill-opacity:1;fill-rule:nonzero;stroke:none"
             d="M 0,0 C 0,0.396 0.322,0.717 0.719,0.717 1.113,0.717 1.434,0.396 1.434,0 1.434,-0.396 1.113,-0.717 0.719,-0.717 0.322,-0.717 0,-0.396 0,0" /></g><g
           transform="translate(217.7646,521.9038)"
           id="g218"><path
             inkscape:connector-curvature="0"
             id="path220"
             style="fill:#282a65;fill-opacity:1;fill-rule:nonzero;stroke:none"
             d="M 0,0 C 0,0.448 0.363,0.811 0.812,0.811 1.26,0.811 1.623,0.448 1.623,0 1.623,-0.448 1.26,-0.811 0.812,-0.811 0.363,-0.811 0,-0.448 0,0" /></g><g
           transform="translate(216.0049,519.1641)"
           id="g222"><path
             inkscape:connector-curvature="0"
             id="path224"
             style="fill:#282a65;fill-opacity:1;fill-rule:nonzero;stroke:none"
             d="M 0,0 C 0,0.449 0.363,0.812 0.812,0.812 1.262,0.812 1.623,0.449 1.623,0 1.623,-0.448 1.262,-0.811 0.812,-0.811 0.363,-0.811 0,-0.448 0,0" /></g><g
           transform="translate(213.167,517.3809)"
           id="g226"><path
             inkscape:connector-curvature="0"
             id="path228"
             style="fill:#282a65;fill-opacity:1;fill-rule:nonzero;stroke:none"
             d="m 0,0 c 0,0.536 0.434,0.972 0.971,0.972 0.537,0 0.97,-0.436 0.97,-0.972 0,-0.538 -0.433,-0.972 -0.97,-0.972 C 0.434,-0.972 0,-0.538 0,0" /></g><g
           transform="translate(207.0674,517.4629)"
           id="g230"><path
             inkscape:connector-curvature="0"
             id="path232"
             style="fill:#282a65;fill-opacity:1;fill-rule:nonzero;stroke:none"
             d="M 0,0 C 0,0.676 0.547,1.225 1.225,1.225 1.9,1.225 2.447,0.676 2.447,0 2.447,-0.676 1.9,-1.225 1.225,-1.225 0.547,-1.225 0,-0.676 0,0" /></g><g
           transform="translate(204.2744,519.2583)"
           id="g234"><path
             inkscape:connector-curvature="0"
             id="path236"
             style="fill:#282a65;fill-opacity:1;fill-rule:nonzero;stroke:none"
             d="M 0,0 C 0,0.772 0.625,1.396 1.396,1.396 2.168,1.396 2.793,0.772 2.793,0 2.793,-0.771 2.168,-1.396 1.396,-1.396 0.625,-1.396 0,-0.771 0,0" /></g><g
           transform="translate(218.5205,524.8018)"
           id="g238"><path
             inkscape:connector-curvature="0"
             id="path240"
             style="fill:#282a65;fill-opacity:1;fill-rule:nonzero;stroke:none"
             d="M 0,0 C 0,0.367 0.299,0.664 0.664,0.664 1.029,0.664 1.326,0.367 1.326,0 1.326,-0.366 1.029,-0.662 0.664,-0.662 0.299,-0.662 0,-0.366 0,0" /></g><g
           transform="translate(218.1084,528.0698)"
           id="g242"><path
             inkscape:connector-curvature="0"
             id="path244"
             style="fill:#282a65;fill-opacity:1;fill-rule:nonzero;stroke:none"
             d="M 0,0 C 0,0.262 0.213,0.473 0.473,0.473 0.734,0.473 0.945,0.262 0.945,0 0.945,-0.261 0.734,-0.472 0.473,-0.472 0.213,-0.472 0,-0.261 0,0" /></g><g
           transform="translate(210.085,516.7627)"
           id="g246"><path
             inkscape:connector-curvature="0"
             id="path248"
             style="fill:#282a65;fill-opacity:1;fill-rule:nonzero;stroke:none"
             d="M 0,0 C 0,0.609 0.492,1.101 1.1,1.101 1.709,1.101 2.201,0.609 2.201,0 2.201,-0.609 1.709,-1.102 1.1,-1.102 0.492,-1.102 0,-0.609 0,0" /></g><g
           transform="translate(241.3213,518.1333)"
           id="g250"><path
             inkscape:connector-curvature="0"
             id="path252"
             style="fill:#404144;fill-opacity:1;fill-rule:nonzero;stroke:none"
             d="m 0,0 c -0.275,-0.051 -0.543,-0.076 -0.801,-0.076 -0.928,0 -1.59,0.257 -1.986,0.774 -0.395,0.515 -0.594,1.162 -0.594,1.941 l 0,8.78 -2.578,0 0,0.482 2.555,0 0,3.425 0.566,0 0,-3.425 3.483,0 0,-0.482 -3.483,0 0,-8.78 c 0,-0.796 0.197,-1.367 0.594,-1.713 0.394,-0.347 0.918,-0.52 1.572,-0.52 0.483,0 0.92,0.076 1.317,0.228 L 0.723,0.202 C 0.516,0.119 0.273,0.05 0,0" /></g><g
           transform="translate(246.7354,529.5898)"
           id="g254"><path
             inkscape:connector-curvature="0"
             id="path256"
             style="fill:#404144;fill-opacity:1;fill-rule:nonzero;stroke:none"
             d="m 0,0 c 0.758,0.533 1.574,0.799 2.451,0.799 l 0.233,0 c 0.068,0 0.146,-0.008 0.232,-0.026 l 0,-0.481 C 2.848,0.309 2.783,0.317 2.723,0.317 l -0.143,0 c -0.756,0 -1.4,-0.165 -1.934,-0.495 -0.533,-0.33 -0.97,-0.761 -1.316,-1.294 -0.344,-0.532 -0.596,-1.126 -0.762,-1.776 -0.162,-0.651 -0.244,-1.298 -0.244,-1.941 l 0,-6.04 -0.566,0 0,8.729 c 0,0.187 -0.006,0.415 -0.014,0.686 -0.008,0.27 -0.017,0.545 -0.025,0.825 -0.01,0.279 -0.024,0.545 -0.039,0.799 -0.018,0.253 -0.035,0.465 -0.051,0.634 l 0.568,0 c 0.016,-0.169 0.03,-0.381 0.037,-0.634 0.008,-0.254 0.016,-0.529 0.028,-0.825 0.006,-0.296 0.015,-0.584 0.025,-0.863 0.008,-0.279 0.012,-0.528 0.012,-0.748 l 0.051,0 C -1.307,-1.408 -0.756,-0.533 0,0" /></g><g
           transform="translate(259.7002,519.9722)"
           id="g258"><path
             inkscape:connector-curvature="0"
             id="path260"
             style="fill:#404144;fill-opacity:1;fill-rule:nonzero;stroke:none"
             d="m 0,0 c -0.32,-0.43 -0.686,-0.791 -1.098,-1.078 -0.414,-0.289 -0.861,-0.507 -1.341,-0.66 -0.483,-0.152 -0.981,-0.228 -1.497,-0.228 -0.826,0 -1.513,0.143 -2.064,0.432 -0.551,0.286 -0.988,0.668 -1.314,1.141 -0.327,0.474 -0.559,1.006 -0.698,1.6 -0.136,0.591 -0.205,1.191 -0.205,1.8 l 0,7.055 0.567,0 0,-7.004 c 0,-0.49 0.052,-1.002 0.154,-1.535 0.103,-0.533 0.297,-1.019 0.582,-1.459 0.283,-0.44 0.66,-0.808 1.135,-1.104 0.472,-0.296 1.086,-0.444 1.843,-0.444 0.655,0 1.268,0.131 1.844,0.394 0.576,0.262 1.074,0.638 1.496,1.129 0.422,0.49 0.758,1.086 1.006,1.788 0.25,0.702 0.375,1.501 0.375,2.399 l 0,5.836 0.567,0 0,-8.729 C 1.352,1.147 1.357,0.918 1.365,0.648 1.373,0.376 1.383,0.103 1.391,-0.177 1.4,-0.456 1.412,-0.722 1.43,-0.976 1.447,-1.23 1.465,-1.442 1.482,-1.611 l -0.568,0 C 0.896,-1.442 0.883,-1.23 0.875,-0.976 0.867,-0.722 0.859,-0.448 0.85,-0.152 0.842,0.144 0.832,0.433 0.824,0.711 0.814,0.99 0.811,1.239 0.811,1.459 l -0.051,0 C 0.57,0.918 0.316,0.433 0,0" /></g><g
           transform="translate(268.9463,518.3613)"
           id="g262"><path
             inkscape:connector-curvature="0"
             id="path264"
             style="fill:#404144;fill-opacity:1;fill-rule:nonzero;stroke:none"
             d="m 0,0 -0.748,0 -4.67,11.673 0.619,0 4.41,-11.115 0.053,0 4.258,11.115 0.617,0 L 0,0 Z" /></g><g
           transform="translate(283.417,524.7314)"
           id="g266"><path
             inkscape:connector-curvature="0"
             id="path268"
             style="fill:#404144;fill-opacity:1;fill-rule:nonzero;stroke:none"
             d="M 0,0 -1.832,0 C -2.486,0 -3.174,-0.04 -3.895,-0.116 -4.617,-0.192 -5.279,-0.348 -5.881,-0.584 -6.484,-0.821 -6.979,-1.16 -7.363,-1.6 c -0.389,-0.44 -0.582,-1.031 -0.582,-1.775 0,-0.543 0.107,-0.996 0.322,-1.358 0.215,-0.365 0.49,-0.656 0.824,-0.876 0.336,-0.22 0.707,-0.381 1.112,-0.482 0.402,-0.101 0.785,-0.153 1.146,-0.153 0.877,0 1.609,0.161 2.193,0.484 0.584,0.32 1.053,0.731 1.407,1.229 0.351,0.499 0.595,1.05 0.734,1.65 C -0.07,-2.281 0,-1.693 0,-1.117 L 0,0 Z m 0.566,-3.731 c 0,-0.441 0.022,-0.91 0.065,-1.409 0.043,-0.499 0.092,-0.909 0.142,-1.23 l -0.541,0 c -0.035,0.169 -0.06,0.376 -0.078,0.622 -0.017,0.245 -0.039,0.499 -0.064,0.761 -0.026,0.262 -0.043,0.52 -0.053,0.774 -0.008,0.254 -0.012,0.465 -0.012,0.634 l -0.078,0 c -0.343,-1.066 -0.937,-1.857 -1.779,-2.372 -0.844,-0.516 -1.746,-0.774 -2.709,-0.774 -0.48,0 -0.959,0.067 -1.432,0.202 -0.472,0.136 -0.898,0.339 -1.275,0.609 -0.379,0.271 -0.684,0.619 -0.918,1.041 -0.23,0.423 -0.346,0.922 -0.346,1.498 0,0.827 0.219,1.497 0.657,2.004 0.439,0.507 0.984,0.901 1.638,1.179 0.653,0.28 1.354,0.462 2.102,0.546 0.748,0.085 1.431,0.127 2.051,0.127 L 0,0.481 0,1.419 C 0,2.723 -0.354,3.674 -1.059,4.274 -1.764,4.875 -2.684,5.176 -3.818,5.176 -4.523,5.176 -5.182,5.049 -5.793,4.795 -6.402,4.541 -6.947,4.202 -7.43,3.78 l -0.308,0.431 c 0.549,0.474 1.172,0.833 1.869,1.079 0.697,0.245 1.381,0.368 2.051,0.368 1.359,0 2.427,-0.343 3.211,-1.028 C 0.176,3.945 0.566,2.866 0.566,1.395 l 0,-5.126 z" /></g><g
           transform="translate(297.7061,524.8066)"
           id="g270"><path
             inkscape:connector-curvature="0"
             id="path272"
             style="fill:#404144;fill-opacity:1;fill-rule:nonzero;stroke:none"
             d="m 0,0 c -0.018,0.761 -0.15,1.455 -0.398,2.081 -0.25,0.626 -0.59,1.163 -1.022,1.611 -0.43,0.448 -0.945,0.794 -1.547,1.04 -0.601,0.246 -1.271,0.369 -2.012,0.369 -0.894,0 -1.66,-0.183 -2.294,-0.546 C -7.91,4.191 -8.432,3.743 -8.834,3.209 -9.238,2.677 -9.535,2.119 -9.725,1.536 -9.914,0.952 -10.008,0.439 -10.008,0 L 0,0 Z m -10.035,-0.482 c 0,-0.71 0.107,-1.412 0.324,-2.107 0.213,-0.693 0.541,-1.315 0.979,-1.864 0.439,-0.55 0.994,-0.994 1.664,-1.333 0.672,-0.338 1.463,-0.507 2.375,-0.507 0.927,0 1.754,0.182 2.476,0.545 0.721,0.363 1.35,0.893 1.881,1.587 L 0.078,-4.517 C -0.508,-5.261 -1.191,-5.828 -1.973,-6.218 -2.756,-6.606 -3.664,-6.8 -4.693,-6.8 c -0.879,0 -1.678,0.156 -2.399,0.469 -0.724,0.313 -1.347,0.749 -1.871,1.308 -0.525,0.557 -0.93,1.225 -1.213,2.003 -0.283,0.778 -0.426,1.624 -0.426,2.538 0,0.879 0.147,1.691 0.44,2.436 0.293,0.744 0.693,1.387 1.203,1.928 0.508,0.542 1.107,0.96 1.797,1.257 0.689,0.295 1.43,0.444 2.223,0.444 0.931,0 1.74,-0.162 2.429,-0.482 C -1.82,4.779 -1.246,4.356 -0.789,3.832 -0.332,3.307 0.008,2.711 0.232,2.043 0.455,1.375 0.568,0.694 0.568,0 l 0,-0.482 -10.603,0 z" /></g><g
           transform="translate(238.4385,509.5796)"
           id="g274"><path
             inkscape:connector-curvature="0"
             id="path276"
             style="fill:#44afcf;fill-opacity:1;fill-rule:nonzero;stroke:none"
             d="m 0,0 c 0.047,-0.175 0.121,-0.333 0.221,-0.473 0.099,-0.139 0.228,-0.252 0.384,-0.337 0.157,-0.085 0.344,-0.127 0.561,-0.127 0.215,0 0.402,0.042 0.559,0.127 0.156,0.085 0.285,0.198 0.384,0.337 C 2.211,-0.333 2.283,-0.175 2.33,0 2.377,0.175 2.4,0.353 2.4,0.533 2.4,0.712 2.377,0.89 2.33,1.065 2.283,1.24 2.211,1.397 2.109,1.538 2.01,1.678 1.881,1.79 1.725,1.875 1.568,1.96 1.381,2.002 1.166,2.002 0.949,2.002 0.762,1.96 0.605,1.875 0.449,1.79 0.32,1.678 0.221,1.538 0.121,1.397 0.047,1.24 0,1.065 -0.047,0.89 -0.07,0.712 -0.07,0.533 -0.07,0.353 -0.047,0.175 0,0 M -0.437,1.235 C -0.365,1.46 -0.258,1.659 -0.115,1.833 0.029,2.006 0.207,2.144 0.42,2.248 0.633,2.351 0.881,2.402 1.166,2.402 1.449,2.402 1.697,2.351 1.91,2.248 2.123,2.144 2.303,2.006 2.445,1.833 2.588,1.659 2.695,1.46 2.768,1.235 2.84,1.01 2.875,0.776 2.875,0.533 2.875,0.289 2.84,0.055 2.768,-0.17 2.695,-0.395 2.588,-0.594 2.445,-0.768 2.303,-0.941 2.123,-1.078 1.91,-1.18 1.697,-1.282 1.449,-1.333 1.166,-1.333 c -0.285,0 -0.533,0.051 -0.746,0.153 -0.213,0.102 -0.391,0.239 -0.535,0.412 -0.143,0.174 -0.25,0.373 -0.322,0.598 -0.073,0.225 -0.108,0.459 -0.108,0.703 0,0.243 0.035,0.477 0.108,0.702" /></g><g
           transform="translate(248.9893,511.897)"
           id="g278"><path
             inkscape:connector-curvature="0"
             id="path280"
             style="fill:#44afcf;fill-opacity:1;fill-rule:nonzero;stroke:none"
             d="m 0,0 0,-0.4 -1.871,0 0,-1.135 1.641,0 0,-0.4 -1.641,0 0,-1.635 -0.475,0 0,3.57 L 0,0 Z" /></g><g
           transform="translate(256.6084,511.897)"
           id="g282"><path
             inkscape:connector-curvature="0"
             id="path284"
             style="fill:#44afcf;fill-opacity:1;fill-rule:nonzero;stroke:none"
             d="m 0,0 0,-0.4 -1.869,0 0,-1.135 1.639,0 0,-0.4 -1.639,0 0,-1.635 -0.477,0 0,3.57 L 0,0 Z" /></g><g
           transform="translate(263.6709,511.4097)"
           id="g286"><path
             inkscape:connector-curvature="0"
             id="path288"
             style="fill:#44afcf;fill-opacity:1;fill-rule:nonzero;stroke:none"
             d="m 0,0 c -0.158,0.115 -0.361,0.172 -0.607,0.172 -0.1,0 -0.198,-0.009 -0.295,-0.029 -0.096,-0.02 -0.182,-0.054 -0.258,-0.101 -0.074,-0.046 -0.135,-0.109 -0.18,-0.187 -0.045,-0.078 -0.068,-0.176 -0.068,-0.292 0,-0.11 0.033,-0.2 0.097,-0.268 0.067,-0.068 0.153,-0.124 0.262,-0.168 0.108,-0.043 0.231,-0.079 0.367,-0.107 0.137,-0.028 0.276,-0.059 0.416,-0.093 0.143,-0.033 0.282,-0.072 0.418,-0.117 0.137,-0.045 0.26,-0.106 0.368,-0.183 0.109,-0.076 0.195,-0.173 0.259,-0.29 0.067,-0.116 0.098,-0.263 0.098,-0.44 C 0.877,-2.292 0.836,-2.455 0.75,-2.59 0.666,-2.725 0.557,-2.835 0.422,-2.92 0.289,-3.005 0.141,-3.067 -0.025,-3.105 c -0.164,-0.038 -0.329,-0.058 -0.493,-0.058 -0.199,0 -0.388,0.025 -0.566,0.076 -0.18,0.049 -0.336,0.125 -0.471,0.227 -0.134,0.102 -0.242,0.232 -0.32,0.39 -0.078,0.158 -0.117,0.346 -0.117,0.562 l 0.449,0 c 0,-0.15 0.029,-0.279 0.088,-0.387 0.059,-0.108 0.135,-0.198 0.23,-0.268 0.096,-0.069 0.205,-0.121 0.332,-0.154 0.127,-0.034 0.258,-0.051 0.391,-0.051 0.106,0 0.213,0.011 0.322,0.031 0.108,0.02 0.205,0.053 0.293,0.102 0.086,0.048 0.157,0.114 0.209,0.197 0.055,0.084 0.08,0.19 0.08,0.32 0,0.124 -0.031,0.224 -0.097,0.301 -0.065,0.076 -0.151,0.139 -0.26,0.187 -0.107,0.048 -0.231,0.088 -0.367,0.117 -0.137,0.031 -0.276,0.061 -0.418,0.093 -0.141,0.032 -0.281,0.068 -0.418,0.11 -0.137,0.041 -0.258,0.097 -0.367,0.165 -0.108,0.068 -0.196,0.157 -0.26,0.265 -0.065,0.108 -0.098,0.244 -0.098,0.407 0,0.181 0.037,0.336 0.112,0.468 0.072,0.131 0.169,0.24 0.291,0.325 0.123,0.085 0.259,0.148 0.416,0.19 0.154,0.042 0.314,0.062 0.476,0.062 0.184,0 0.354,-0.021 0.51,-0.065 C 0.08,0.464 0.217,0.396 0.336,0.302 0.453,0.209 0.547,0.092 0.615,-0.05 0.684,-0.192 0.721,-0.361 0.729,-0.558 l -0.452,0 C 0.252,-0.301 0.158,-0.115 0,0" /></g><g
           transform="translate(270.3486,511.897)"
           id="g290"><path
             inkscape:connector-curvature="0"
             id="path292"
             style="fill:#44afcf;fill-opacity:1;fill-rule:nonzero;stroke:none"
             d="m 0,0 0,-1.535 1.881,0 0,1.535 0.474,0 0,-3.57 -0.474,0 0,1.635 -1.881,0 0,-1.635 -0.475,0 0,3.57 L 0,0 Z" /></g><g
           transform="translate(278.5791,509.5796)"
           id="g294"><path
             inkscape:connector-curvature="0"
             id="path296"
             style="fill:#44afcf;fill-opacity:1;fill-rule:nonzero;stroke:none"
             d="m 0,0 c 0.045,-0.175 0.119,-0.333 0.219,-0.473 0.099,-0.139 0.228,-0.252 0.385,-0.337 0.158,-0.085 0.343,-0.127 0.56,-0.127 0.217,0 0.404,0.042 0.561,0.127 0.156,0.085 0.285,0.198 0.384,0.337 C 2.209,-0.333 2.283,-0.175 2.33,0 2.375,0.175 2.398,0.353 2.398,0.533 2.398,0.712 2.375,0.89 2.33,1.065 2.283,1.24 2.209,1.397 2.109,1.538 2.01,1.678 1.881,1.79 1.725,1.875 1.568,1.96 1.381,2.002 1.164,2.002 0.947,2.002 0.762,1.96 0.604,1.875 0.447,1.79 0.318,1.678 0.219,1.538 0.119,1.397 0.045,1.24 0,1.065 -0.047,0.89 -0.07,0.712 -0.07,0.533 -0.07,0.353 -0.047,0.175 0,0 m -0.437,1.235 c 0.07,0.225 0.177,0.424 0.322,0.598 0.142,0.173 0.32,0.311 0.535,0.415 0.213,0.103 0.461,0.154 0.744,0.154 0.283,0 0.531,-0.051 0.744,-0.154 C 2.123,2.144 2.301,2.006 2.443,1.833 2.588,1.659 2.695,1.46 2.768,1.235 2.838,1.01 2.875,0.776 2.875,0.533 2.875,0.289 2.838,0.055 2.768,-0.17 2.695,-0.395 2.588,-0.594 2.443,-0.768 2.301,-0.941 2.123,-1.078 1.908,-1.18 1.695,-1.282 1.447,-1.333 1.164,-1.333 c -0.283,0 -0.531,0.051 -0.744,0.153 -0.215,0.102 -0.393,0.239 -0.535,0.412 -0.145,0.174 -0.252,0.373 -0.322,0.598 -0.073,0.225 -0.108,0.459 -0.108,0.703 0,0.243 0.035,0.477 0.108,0.702" /></g><g
           transform="translate(288.5635,510.2773)"
           id="g298"><path
             inkscape:connector-curvature="0"
             id="path300"
             style="fill:#44afcf;fill-opacity:1;fill-rule:nonzero;stroke:none"
             d="M 0,0 C 0.1,0.017 0.187,0.049 0.262,0.097 0.338,0.146 0.396,0.21 0.441,0.292 0.486,0.374 0.51,0.48 0.51,0.61 0.51,0.79 0.459,0.937 0.359,1.05 0.26,1.163 0.098,1.22 -0.125,1.22 l -1.18,0 0,-1.245 0.991,0 C -0.205,-0.025 -0.1,-0.017 0,0 M -0.1,1.62 C 0.24,1.62 0.506,1.537 0.697,1.37 0.889,1.203 0.984,0.975 0.984,0.685 0.984,0.468 0.936,0.278 0.838,0.115 0.738,-0.048 0.582,-0.16 0.365,-0.22 l 0,-0.01 C 0.469,-0.25 0.553,-0.284 0.617,-0.33 0.682,-0.377 0.734,-0.433 0.771,-0.498 0.811,-0.562 0.838,-0.635 0.857,-0.715 0.875,-0.795 0.889,-0.878 0.9,-0.965 0.906,-1.052 0.912,-1.14 0.914,-1.23 0.918,-1.32 0.926,-1.409 0.939,-1.495 0.953,-1.582 0.973,-1.665 0.998,-1.743 1.021,-1.821 1.061,-1.89 1.109,-1.95 l -0.529,0 C 0.547,-1.914 0.523,-1.864 0.512,-1.8 0.5,-1.737 0.492,-1.666 0.49,-1.588 0.486,-1.509 0.482,-1.425 0.48,-1.335 0.477,-1.245 0.467,-1.157 0.449,-1.07 0.436,-0.983 0.42,-0.901 0.4,-0.823 c -0.021,0.078 -0.052,0.147 -0.095,0.205 -0.043,0.058 -0.1,0.105 -0.17,0.14 -0.071,0.035 -0.164,0.053 -0.28,0.053 l -1.16,0 0,-1.525 -0.476,0 0,3.57 1.681,0 z" /></g><g
           transform="translate(297.4229,511.897)"
           id="g302"><path
             inkscape:connector-curvature="0"
             id="path304"
             style="fill:#44afcf;fill-opacity:1;fill-rule:nonzero;stroke:none"
             d="m 0,0 0,-0.4 -1.99,0 0,-1.135 1.855,0 0,-0.4 -1.855,0 0,-1.235 2.006,0 0,-0.4 -2.481,0 0,3.57 L 0,0 Z" /></g></g></g></g></svg>