<?xml version="1.0" encoding="utf-8"?>
<!-- Generator: Adobe Illustrator 16.0.0, SVG Export Plug-In . SVG Version: 6.00 Build 0)  -->
<!DOCTYPE svg PUBLIC "-//W3C//DTD SVG 1.1//EN" "http://www.w3.org/Graphics/SVG/1.1/DTD/svg11.dtd">
<svg version="1.1" id="Layer_1" xmlns="http://www.w3.org/2000/svg" xmlns:xlink="http://www.w3.org/1999/xlink" x="0px" y="0px"
	 width="320px" height="90px" viewBox="0 0 320 90" enable-background="new 0 0 320 90" xml:space="preserve">
<g>
	<polygon fill="#939598" points="21.286,58.77 16.691,58.77 5.004,42.927 5.004,58.77 0,58.77 0,37.749 5.182,37.749 18.988,56.421 
		32.621,37.749 37.771,37.749 37.771,58.77 32.768,58.77 32.768,42.927 	"/>
	<polygon fill="#939598" points="49.065,58.77 49.065,49.177 35.524,37.749 40.94,37.749 51.656,47.192 62.401,37.749 
		67.821,37.749 54.129,48.948 54.129,58.77 	"/>
	<path fill="#939598" d="M114.377,59.105c-6.517,0-11.534-1.03-15.058-3.088c-3.521-2.057-5.283-4.777-5.283-8.167
		c0-3.059,1.984-5.599,5.961-7.621c3.974-2.02,8.885-3.031,14.734-3.031c6.379,0,11.314,1.012,14.809,3.031
		c3.493,2.022,5.24,4.69,5.24,8.009c0,3.084-1.933,5.669-5.799,7.745C125.114,58.063,120.246,59.105,114.377,59.105 M114.643,57.174
		c3.828,0,7.26-0.806,10.289-2.417c3.034-1.608,4.55-3.984,4.55-7.123c0-2.001-1.19-3.919-3.563-5.754
		c-2.374-1.834-6.065-2.748-11.068-2.748c-4.826,0-8.623,0.818-11.38,2.459c-2.757,1.644-4.136,3.731-4.136,6.272
		c0,2.986,1.451,5.285,4.358,6.894C106.596,56.368,110.246,57.174,114.643,57.174"/>
	<polygon fill="#939598" points="139.559,41.506 139.559,58.77 134.586,58.77 134.553,37.749 139.559,37.749 162.494,55.094 
		162.494,37.749 167.5,37.749 167.5,58.77 162.7,58.77 	"/>
	<polygon fill-rule="evenodd" clip-rule="evenodd" fill="#FFC20E" points="67.514,68.423 77.93,43.34 87.74,50.971 	"/>
	<polygon fill-rule="evenodd" clip-rule="evenodd" fill="#3069B3" points="66.661,34.571 78.328,59.093 87.74,50.971 	"/>
	<polygon fill="#BFBFBF" points="74.574,39.111 95.722,55.427 83.952,30.951 	"/>
	<polygon fill-rule="evenodd" clip-rule="evenodd" fill="#BA141A" points="94.722,21.577 84.415,46.701 74.574,39.111 	"/>
</g>
</svg>
