<?xml version="1.0" encoding="utf-8"?>
<!-- Generator: Adobe Illustrator 16.0.0, SVG Export Plug-In . SVG Version: 6.00 Build 0)  -->
<!DOCTYPE svg PUBLIC "-//W3C//DTD SVG 1.1//EN" "http://www.w3.org/Graphics/SVG/1.1/DTD/svg11.dtd">
<svg version="1.1" id="Layer_1" xmlns="http://www.w3.org/2000/svg" xmlns:xlink="http://www.w3.org/1999/xlink" x="0px" y="0px"
	 width="320px" height="80px" viewBox="0 0 320 80" enable-background="new 0 0 320 80" xml:space="preserve">
<g>
	<polygon fill="#939598" points="59.493,62.155 52.101,62.155 33.296,36.664 33.296,62.155 25.244,62.155 25.244,28.333 
		33.582,28.333 55.796,58.377 77.731,28.333 86.019,28.333 86.019,62.155 77.969,62.155 77.969,36.664 	"/>
	<polygon fill="#939598" points="104.191,62.155 104.191,46.721 82.403,28.333 91.118,28.333 108.359,43.527 125.649,28.333 
		134.37,28.333 112.339,46.353 112.339,62.155 	"/>
	<path fill="#939598" d="M209.279,62.696c-10.485,0-18.559-1.658-24.229-4.969c-5.666-3.31-8.499-7.687-8.499-13.141
		c0-4.921,3.191-9.009,9.593-12.263c6.394-3.249,14.296-4.877,23.706-4.877c10.266,0,18.205,1.628,23.828,4.877
		c5.62,3.254,8.432,7.547,8.432,12.887c0,4.962-3.11,9.121-9.332,12.462C226.556,61.02,218.723,62.696,209.279,62.696
		 M209.707,59.588c6.159,0,11.681-1.296,16.556-3.889c4.88-2.588,7.322-6.411,7.322-11.461c0-3.22-1.916-6.306-5.735-9.259
		c-3.818-2.95-9.758-4.421-17.81-4.421c-7.764,0-13.875,1.316-18.309,3.956c-4.438,2.645-6.656,6.004-6.656,10.093
		c0,4.805,2.335,8.504,7.013,11.092C196.76,58.292,202.633,59.588,209.707,59.588"/>
	<polygon fill="#939598" points="249.798,34.378 249.798,62.155 241.796,62.155 241.743,28.333 249.798,28.333 286.701,56.241 
		286.701,28.333 294.756,28.333 294.756,62.155 287.033,62.155 	"/>
	<polygon fill-rule="evenodd" clip-rule="evenodd" fill="#FFC20E" points="133.876,77.688 150.635,37.329 166.42,49.607 	"/>
	<polygon fill-rule="evenodd" clip-rule="evenodd" fill="#3069B3" points="132.503,23.22 151.276,62.676 166.42,49.607 	"/>
	<polygon fill="#BFBFBF" points="145.235,30.525 179.263,56.777 160.325,17.396 	"/>
	<polygon fill-rule="evenodd" clip-rule="evenodd" fill="#BA141A" points="177.653,2.313 161.07,42.737 145.236,30.525 	"/>
</g>
</svg>
